# xmcd CD database file
#
# Track frame offsets:
#	900
#	11144
#	21704
#	31844
#	42374
#	53488
#	62412
#	75716
#	93895
#	104200
#	118419
#	129135
#	142530
#	155670
#	167924
#	177261
#	189065
#
# Disc length: 2660 seconds
# 
# Revision: 0
# Processed by: cddbd v1.5.2PL0 Copyright (c) Steve Scherf et al.
# Submitted via: cddb-tool 0.4.7
#
DISCID=da0a5811
DTITLE=Johnny Cash - His Greatest Hits [CD 2)
DYEAR=1900
DGENRE=Country
TTITLE0=Wandering Through The Fields
TTITLE1=Talking About Jeasus
TTITLE2=I Found Jesus
TTITLE3=I'm Gonna Lay Back 
TTITLE4=You And Tenessy
TTITLE5=Another Song To Sing
TTITLE6=The Shrimpin' Sailing
TTITLE7=Drunkn' Irah Hase
TTITLE8=Shany Town
TTITLE9=I've Got A Woman
TTITLE10=Pack Up Your Sorrows
TTITLE11=It Ain't Me
TTITLE12=Orange Blossom Spezial
TTITLE13=Jackson
TTITLE14=Austin Prisson
TTITLE15=Makkasin Gap
TTITLE16=Daddy Sang Bass
EXTD=
EXTT0=
EXTT1=
EXTT2=
EXTT3=
EXTT4=
EXTT5=
EXTT6=
EXTT7=
EXTT8=
EXTT9=
EXTT10=
EXTT11=
EXTT12=
EXTT13=
EXTT14=
EXTT15=
EXTT16=
PLAYORDER=
